<?xml version="1.0" standalone="no"?>
<!DOCTYPE svg PUBLIC "-//W3C//DTD SVG 20010904//EN"
 "http://www.w3.org/TR/2001/REC-SVG-20010904/DTD/svg10.dtd">
<svg version="1.0" xmlns="http://www.w3.org/2000/svg"
 width="5633.000000pt" height="794.000000pt" viewBox="0 0 5633.000000 794.000000"
 preserveAspectRatio="xMidYMid meet">

<g transform="translate(0.000000,794.000000) scale(0.100000,-0.100000)"
fill="#d81d2c" stroke="none">
<path d="M3088 7155 l-767 -780 -1 -842 0 -843 -27 -6 c-346 -79 -565 -153
-830 -279 -958 -458 -1519 -1289 -1452 -2157 58 -763 573 -1449 1399 -1863
1182 -593 2740 -488 3775 253 137 98 228 177 366 318 190 196 304 354 415 579
286 578 267 1233 -53 1797 -32 57 -59 106 -61 110 -2 5 415 8 927 8 l931 0 0
655 0 655 -1925 0 -1925 0 -2 1588 -3 1587 -767 -780z m307 -3995 c545 -61
980 -260 1153 -528 58 -90 76 -151 76 -252 -1 -101 -18 -157 -79 -250 -160
-246 -546 -437 -1032 -510 -179 -27 -492 -37 -672 -21 -560 50 -1011 243
-1202 514 -69 99 -92 176 -87 292 3 83 8 101 42 171 30 61 58 98 125 164 162
161 374 272 674 350 97 26 304 63 407 73 82 9 512 6 595 -3z"/>
<path d="M46193 6891 l-803 -696 0 -2957 0 -2958 805 0 805 0 2 240 3 240 73
-85 c258 -299 627 -487 1052 -536 151 -17 481 -7 635 20 467 82 816 259 1149
581 193 187 326 364 447 595 279 531 360 1175 224 1781 -103 458 -331 865
-666 1190 -318 308 -727 502 -1221 581 -143 22 -542 25 -658 5 -384 -69 -675
-214 -957 -477 l-83 -77 -2 1625 -3 1625 -802 -697z m1947 -3356 c494 -75 859
-509 861 -1025 1 -161 -27 -283 -98 -424 -162 -325 -460 -542 -803 -586 -368
-47 -784 153 -983 472 -230 368 -219 756 30 1142 204 317 594 482 993 421z"/>
<path d="M9553 5695 l7 -935 -260 0 -260 0 0 -655 0 -655 260 0 260 0 0 -1585
0 -1585 800 0 800 0 0 1585 0 1585 455 0 455 0 0 655 0 655 -455 0 -455 0 0
935 0 935 -807 0 -806 0 6 -935z"/>
<path d="M33925 6616 c-225 -38 -394 -124 -536 -274 -135 -142 -198 -286 -206
-472 -6 -132 12 -225 67 -338 142 -297 458 -482 825 -482 138 0 215 12 337 54
145 49 238 106 343 211 151 151 213 287 222 486 8 174 -31 315 -127 453 -42
63 -143 160 -213 208 -193 131 -479 193 -712 154z"/>
<path d="M36354 5695 l8 -935 -261 0 -261 0 0 -655 0 -655 260 0 260 0 0
-1585 0 -1585 800 0 800 0 0 1585 0 1585 455 0 455 0 0 655 0 655 -455 0 -455
0 0 935 0 935 -807 0 -806 0 7 -935z"/>
<path d="M18680 4903 c-553 -56 -1047 -279 -1394 -628 -378 -380 -608 -886
-671 -1475 -17 -160 -19 -443 -4 -596 54 -550 280 -1018 689 -1424 198 -197
370 -320 605 -435 305 -150 594 -215 947 -215 506 0 929 155 1227 449 54 53
114 116 134 141 l37 45 0 -242 0 -243 800 0 800 0 0 2240 0 2240 -800 0 -800
0 0 -212 0 -212 -57 55 c-293 284 -637 453 -1030 504 -103 14 -385 18 -483 8z
m842 -1387 c361 -91 654 -380 743 -731 61 -241 35 -506 -71 -716 -75 -151
-218 -306 -375 -409 -174 -114 -339 -164 -544 -163 -108 0 -147 4 -228 26
-252 67 -499 236 -625 427 -134 203 -200 459 -173 669 61 476 418 847 887 921
96 15 277 4 386 -24z"/>
<path d="M30595 4900 c-466 -47 -870 -188 -1153 -402 -265 -201 -451 -511
-534 -891 -20 -89 -22 -131 -22 -322 0 -207 1 -226 27 -320 102 -377 376 -651
782 -783 50 -16 254 -69 455 -117 414 -98 523 -131 597 -180 90 -60 123 -122
123 -233 0 -87 -16 -135 -63 -188 -96 -109 -315 -161 -570 -135 -351 37 -729
172 -1021 365 -55 36 -101 65 -102 63 -8 -9 -564 -1097 -564 -1105 0 -10 170
-108 305 -175 331 -165 677 -272 1041 -322 158 -22 577 -31 758 -16 473 40
869 173 1168 393 120 88 302 275 376 386 346 521 343 1260 -8 1696 -149 184
-444 348 -823 456 -182 52 -331 89 -547 135 -68 15 -154 39 -190 53 -188 75
-250 269 -129 406 46 52 163 114 259 137 78 19 313 17 425 -4 134 -24 319 -80
473 -142 75 -30 137 -53 138 -52 8 8 534 1008 534 1014 0 4 -37 23 -83 40
-274 108 -574 184 -897 229 -136 18 -620 27 -755 14z"/>
<path d="M53615 4884 c-439 -44 -725 -119 -1027 -269 -223 -111 -374 -219
-549 -394 -183 -183 -289 -336 -410 -586 -338 -701 -327 -1623 28 -2294 106
-201 214 -350 368 -510 359 -372 835 -597 1435 -678 168 -22 703 -26 870 -5
616 76 1034 255 1388 597 235 226 407 498 511 808 l40 117 -768 0 -768 0 -38
-61 c-46 -74 -131 -163 -205 -212 -158 -106 -465 -166 -708 -138 -349 41 -548
176 -682 464 -62 133 -110 330 -110 448 l0 49 1672 0 1671 0 -6 233 c-14 514
-96 885 -272 1232 -331 655 -907 1054 -1700 1175 -113 18 -195 22 -420 25
-154 2 -298 1 -320 -1z m550 -1038 c274 -59 459 -199 589 -446 40 -77 96 -217
96 -242 0 -4 -407 -8 -905 -8 -654 0 -905 3 -905 11 0 30 35 142 66 207 130
283 352 449 659 492 85 12 317 4 400 -14z"/>
<path d="M25715 4848 c-372 -42 -716 -198 -966 -440 -47 -46 -109 -110 -137
-143 l-52 -60 0 278 0 277 -800 0 -800 0 0 -2240 0 -2240 800 0 799 0 4 1283
c3 1189 4 1287 21 1357 40 169 104 315 181 413 87 110 249 206 421 249 124 31
343 31 458 -1 210 -56 357 -204 426 -426 54 -176 53 -147 57 -1562 l4 -1313
800 0 800 0 -4 1618 c-3 1608 -3 1618 -25 1727 -34 175 -59 252 -122 381 -157
322 -453 585 -815 725 -121 47 -326 96 -476 113 -146 17 -441 19 -574 4z"/>
<path d="M15475 4819 c-108 -13 -294 -55 -380 -86 -38 -14 -110 -46 -160 -71
-276 -137 -467 -316 -634 -592 l-21 -35 0 363 0 362 -800 0 -800 0 0 -2240 0
-2240 800 0 799 0 4 1087 c3 1060 4 1091 25 1198 76 393 261 658 554 794 292
136 774 130 1101 -14 45 -20 88 -39 95 -42 9 -4 12 150 12 750 l0 754 -42 7
c-80 11 -473 15 -553 5z"/>
<path d="M39482 3208 l3 -1553 23 -112 c66 -331 195 -576 427 -808 147 -147
266 -233 456 -328 304 -154 649 -236 1126 -268 227 -15 803 -6 983 15 625 77
1080 290 1413 664 220 247 334 513 367 857 6 71 10 642 10 1598 l0 1487 -800
0 -800 0 0 -1257 c0 -753 -4 -1303 -10 -1371 -19 -210 -97 -384 -230 -512
-111 -106 -233 -160 -411 -181 -212 -24 -442 6 -589 79 -143 70 -274 232 -324
402 -45 150 -46 174 -46 1543 l0 1297 -800 0 -801 0 3 -1552z"/>
<path d="M33280 2490 l0 -2210 800 0 800 0 0 2210 0 2210 -800 0 -800 0 0
-2210z"/>
</g>
</svg>
